<svg width="39" height="40" viewBox="0 0 39 40" fill="none" xmlns="http://www.w3.org/2000/svg">
<path d="M30.8014 40C30.5883 39.9413 30.3713 39.8943 30.1632 39.8219C28.4647 39.232 27.4064 38.0786 27.1844 36.3138C26.9724 34.6253 27.6643 33.2635 29.1029 32.3449C30.5654 31.4107 32.1116 31.4195 33.6059 32.2999C35.1242 33.1941 35.8888 34.9589 35.5493 36.6308C35.2078 38.3125 33.8419 39.6175 32.0956 39.9325C32.0329 39.9442 31.9742 39.9765 31.9134 40C31.5431 40 31.1727 40 30.8014 40ZM31.3868 33.3467C29.9959 33.3457 28.868 34.4394 28.8421 35.8129C28.8162 37.1639 29.993 38.331 31.3838 38.335C32.7607 38.3389 33.9056 37.2178 33.9175 35.855C33.9295 34.4688 32.7985 33.3477 31.3868 33.3467Z" fill="#009473"/>
<path d="M13.8635 40C13.066 39.8014 12.3164 39.5285 11.6692 38.9884C9.68403 37.3342 9.691 34.2731 11.7071 32.658C14.2727 30.6036 17.9892 31.9389 18.5975 35.1321C19.0107 37.3019 17.4705 39.4932 15.2344 39.9208C15.1468 39.9374 15.0632 39.9726 14.9775 39.999C14.6052 40 14.2348 40 13.8635 40ZM16.9617 35.8531C16.9757 34.4952 15.8487 33.3672 14.4588 33.3477C13.0501 33.3281 11.8922 34.4345 11.8783 35.8159C11.8644 37.1786 13.0322 38.3359 14.421 38.335C15.7959 38.334 16.9478 37.208 16.9617 35.8531Z" fill="#009473"/>
<path d="M10.7113 23.3415C10.9432 24.4304 11.0239 25.4977 11.6371 26.4055C12.5491 27.7546 13.8663 28.3425 15.4881 28.3415C21.7821 28.3396 28.0772 28.3406 34.3713 28.3415C34.5435 28.3415 34.7168 28.3386 34.887 28.3601C35.2932 28.411 35.5829 28.7211 35.6108 29.1183C35.6367 29.4939 35.4037 29.8334 35.0214 29.942C34.8721 29.9841 34.7088 29.9978 34.5515 29.9978C28.125 30.0007 21.6975 30.0056 15.271 29.9978C12.2693 29.9939 9.91678 28.0119 9.32639 25.0829C7.98733 18.4384 6.62538 11.7988 5.27238 5.15723C5.26441 5.12005 5.25048 5.08386 5.22559 4.99973C4.93587 4.99973 4.6352 4.99973 4.33354 4.99973C3.20754 4.99973 2.08054 5.0007 0.954532 4.99875C0.584175 4.99777 0.273552 4.87353 0.102312 4.53211C-0.0420477 4.24254 -0.0529991 3.92166 0.185941 3.69568C0.361164 3.53035 0.62798 3.36502 0.856964 3.3611C2.55244 3.33371 4.24892 3.33958 5.94539 3.35132C6.41929 3.35523 6.68212 3.61546 6.78965 4.12905C7.05547 5.40278 7.31332 6.67748 7.57616 7.95218C7.60204 8.0774 7.63589 8.20066 7.66676 8.32882C8.64641 8.32882 9.5962 8.32882 10.6097 8.32882C10.5241 8.21729 10.4743 8.13708 10.4076 8.07153C9.90383 7.57261 9.39509 7.0776 8.89132 6.57867C8.36068 6.05334 8.35371 5.61702 8.87739 5.10049C10.4773 3.5235 12.0792 1.94944 13.6841 0.378322C14.1968 -0.123537 14.6428 -0.120602 15.1605 0.386148C16.7654 1.95629 18.3673 3.53132 19.9672 5.10831C20.0687 5.2081 20.1404 5.33723 20.226 5.45267C20.2639 5.43213 20.3017 5.41158 20.3385 5.39006C20.3465 5.28441 20.3624 5.17875 20.3624 5.0731C20.3644 3.74557 20.3614 2.41706 20.3644 1.08953C20.3664 0.286363 20.6541 0.000704913 21.4596 -0.000273369C23.5533 -0.00125165 25.647 -0.00125165 27.7407 -0.000273369C28.5302 0.000704913 28.8269 0.287342 28.8339 1.05236C28.8368 1.42411 28.8349 1.79585 28.8349 2.1676C28.8817 2.19988 28.9294 2.23217 28.9762 2.26445C29.3177 1.89172 29.6303 1.48867 30.0037 1.15116C32.2198 -0.85627 35.7432 -0.148972 36.9419 2.56674C37.6736 4.22493 37.3899 5.77844 36.1892 7.14412C35.8468 7.53445 35.4187 7.8524 35.0304 8.2036C35.0533 8.2486 35.0772 8.29458 35.1001 8.33958C35.342 8.33958 35.5839 8.33958 35.8258 8.33958C36.5277 8.33958 37.2306 8.33665 37.9325 8.34056C38.7479 8.34447 39.0784 8.68394 38.9828 9.47928C38.7738 11.2236 38.5438 12.9649 38.3208 14.7072C38.1217 16.2686 37.9016 17.8279 37.7254 19.3922C37.5044 21.3527 36.3087 22.7536 34.3653 23.2173C33.9591 23.3141 33.526 23.3347 33.1049 23.3347C25.8162 23.3415 18.5286 23.3396 11.2399 23.3396C11.0856 23.3415 10.9283 23.3415 10.7113 23.3415ZM37.2067 10.0164C27.444 10.0164 17.7341 10.0164 8.00824 10.0164C8.02815 10.1474 8.0411 10.2619 8.06399 10.3744C8.8077 14.0332 9.55637 17.692 10.2891 21.3527C10.3509 21.6608 10.5221 21.6638 10.763 21.6638C18.2508 21.6608 25.7386 21.6618 33.2264 21.6599C34.899 21.6599 35.8706 20.7638 36.0558 19.1202C36.232 17.556 36.4481 15.9956 36.6472 14.4343C36.8314 12.9757 37.0156 11.518 37.2067 10.0164ZM20.7428 8.32197C20.7637 8.29067 20.7836 8.25838 20.8045 8.22708C18.6928 6.14529 16.5812 4.06253 14.5233 2.0326C13.1644 3.36502 11.885 4.61917 10.5838 5.89583C11.3146 6.61096 12.0642 7.36325 12.8398 8.08718C12.9911 8.22806 13.248 8.3298 13.4571 8.33175C15.7599 8.34838 18.0626 8.34251 20.3654 8.34154C20.4909 8.34056 20.6173 8.32882 20.7428 8.32197ZM28.8349 8.33762C30.0913 8.33762 31.293 8.34154 32.4946 8.3298C32.5932 8.32882 32.7067 8.23295 32.7873 8.15469C33.4653 7.4963 34.1463 6.83987 34.8104 6.16682C35.5162 5.45071 35.79 4.59374 35.5212 3.62328C34.9746 1.654 32.6141 1.03475 31.063 2.45619C30.3561 3.10382 29.6881 3.79155 29.0101 4.4695C28.9255 4.55461 28.8438 4.68961 28.8428 4.80211C28.8299 5.95844 28.8349 7.11477 28.8349 8.33762ZM27.1324 1.69313C25.42 1.69313 23.7474 1.69313 22.0539 1.69313C22.0539 3.0911 22.1216 4.46167 22.031 5.82246C21.9653 6.80857 22.2182 7.56674 23.0455 8.12045C23.1979 8.22219 23.387 8.32784 23.5613 8.33175C24.6474 8.35132 25.7346 8.34251 26.8208 8.33958C26.9223 8.33958 27.0229 8.32099 27.1324 8.30925C27.1324 6.09638 27.1324 3.9109 27.1324 1.69313Z" fill="#009473"/>
</svg>
