<svg width="26" height="23" viewBox="0 0 26 23" fill="none" xmlns="http://www.w3.org/2000/svg">
<path d="M8.42969 15.2346H22.1916C22.5324 15.2346 22.8313 15.0092 22.9236 14.6819L25.9706 4.01767C26.0361 3.78777 25.9913 3.5408 25.8471 3.34978C25.7027 3.15935 25.4781 3.04688 25.2385 3.04688H6.67119L6.12668 0.59668C6.04932 0.247757 5.73987 0 5.38281 0H0.761719C0.34079 0 0 0.34079 0 0.761719C0 1.18285 0.34079 1.52344 0.761719 1.52344H4.77145L7.52217 13.9014C6.71284 14.2533 6.14453 15.0588 6.14453 15.9963C6.14453 17.2563 7.16968 18.2814 8.42969 18.2814H22.1916C22.6127 18.2814 22.9533 17.9409 22.9533 17.5197C22.9533 17.0988 22.6127 16.758 22.1916 16.758H8.42969C8.01015 16.758 7.66797 16.4166 7.66797 15.9963C7.66797 15.576 8.01015 15.2346 8.42969 15.2346Z" fill="white"/>
<path d="M7.66797 20.5666C7.66797 21.8268 8.69312 22.8517 9.95332 22.8517C11.2133 22.8517 12.2385 21.8268 12.2385 20.5666C12.2385 19.3066 11.2133 18.2814 9.95332 18.2814C8.69312 18.2814 7.66797 19.3066 7.66797 20.5666Z" fill="white"/>
<path d="M18.3829 20.5666C18.3829 21.8268 19.4081 22.8517 20.6681 22.8517C21.9283 22.8517 22.9532 21.8268 22.9532 20.5666C22.9532 19.3066 21.9283 18.2814 20.6681 18.2814C19.4081 18.2814 18.3829 19.3066 18.3829 20.5666Z" fill="white"/>
</svg>
