<svg width="29" height="30" viewBox="0 0 29 30" fill="none" xmlns="http://www.w3.org/2000/svg">
<g clip-path="url(#clip0_icon_phone)">
<path d="M15.0373 30.0011C10.9484 30.0011 6.85879 30.0011 2.76994 30.0011C2.74395 29.9878 2.71874 29.969 2.69118 29.9635C0.9378 29.5855 -0.00111476 28.4288 -0.00111476 26.6428C-0.00111476 18.861 -0.00190244 11.0785 -0.00111476 3.29675C-0.00111476 1.34408 1.34739 0.00342143 3.31187 0.0026388C7.02735 0.00107353 10.7421 0.00107353 14.4575 0.0026388C16.4126 0.00342143 17.7532 1.3339 17.7579 3.27484C17.7603 4.41749 17.7587 5.55935 17.7587 6.702C17.7587 6.80688 17.7587 6.91175 17.7587 7.06123C21.5254 7.06123 25.2621 7.06123 28.9989 7.06123C28.9989 12.3745 28.9989 17.6433 28.9989 22.9464C25.2535 22.9464 21.5238 22.9464 17.7587 22.9464C17.7587 23.0841 17.7587 23.189 17.7587 23.2939C17.7579 24.5148 17.7705 25.7349 17.7516 26.9551C17.7311 28.2981 16.8277 29.4665 15.5406 29.8602C15.3736 29.9111 15.205 29.9541 15.0373 30.0011ZM27.2235 8.85582C18.7346 8.85582 10.2631 8.85582 1.79007 8.85582C1.79007 12.9678 1.79007 17.0539 1.79007 21.1463C10.2789 21.1463 18.7504 21.1463 27.2235 21.1463C27.2235 17.0344 27.2235 12.9482 27.2235 8.85582ZM15.9841 22.9613C11.2328 22.9613 6.52009 22.9613 1.77274 22.9613C1.77274 23.0724 1.77274 23.1671 1.77274 23.2618C1.77274 24.4232 1.77117 25.5854 1.77353 26.7469C1.7751 27.6743 2.34696 28.237 3.28587 28.2378C5.0747 28.2394 6.86273 28.2386 8.65155 28.2386C10.6074 28.2386 12.5624 28.2401 14.5182 28.2378C15.4035 28.237 15.9786 27.6673 15.9841 26.7946C15.9864 26.3454 15.9849 25.8962 15.9849 25.4477C15.9841 24.6291 15.9841 23.8104 15.9841 22.9613ZM15.9841 7.04088C15.9841 6.91958 15.9841 6.82409 15.9841 6.72783C15.9841 5.58596 15.9849 4.4441 15.9841 3.30223C15.9833 2.30907 15.4295 1.76514 14.4378 1.75809C14.2441 1.75653 14.1409 1.81992 14.0448 1.98114C13.4312 3.01422 12.8034 4.03869 12.1906 5.07177C12.0929 5.23613 11.9858 5.29404 11.7952 5.29326C9.85985 5.28621 7.92452 5.28465 5.98919 5.29404C5.77022 5.29482 5.65915 5.21499 5.55361 5.03655C4.9463 4.0113 4.32798 2.99309 3.70728 1.97488C3.65687 1.89192 3.57338 1.78783 3.48988 1.7714C2.59587 1.59374 1.78298 2.2535 1.77589 3.16605C1.76644 4.38618 1.77353 5.60631 1.77432 6.82566C1.77432 6.8914 1.78613 6.95792 1.79401 7.03932C6.51851 7.04088 11.2304 7.04088 15.9841 7.04088ZM12.0945 1.79018C9.93704 1.79018 7.82134 1.79018 5.67018 1.79018C6.00888 2.35055 6.32081 2.87883 6.64927 3.39693C6.69417 3.46737 6.82098 3.52137 6.91078 3.52215C8.22542 3.52998 9.54005 3.5292 10.8547 3.5245C10.9335 3.5245 11.0508 3.50102 11.0839 3.4478C11.4242 2.907 11.7519 2.35681 12.0945 1.79018Z" fill="white"/>
<path d="M7.58693 19.4163C6.35579 18.1938 5.11204 16.9596 3.89429 15.7496C4.29049 15.356 4.69772 14.9506 5.11598 14.535C5.92256 15.3364 6.74569 16.155 7.58142 16.9854C9.68688 14.8934 11.7679 12.8257 13.8332 10.7744C14.2665 11.2049 14.6729 11.6087 15.0596 11.993C12.58 14.4552 10.0815 16.9369 7.58693 19.4163Z" fill="white"/>
<path d="M17.4792 19.3835C17.4792 18.7997 17.4792 18.2385 17.4792 17.6602C20.1408 17.6602 22.7866 17.6602 25.449 17.6602C25.449 18.2377 25.449 18.7997 25.449 19.3835C22.7969 19.3835 20.1511 19.3835 17.4792 19.3835Z" fill="white"/>
<path d="M22.7773 15.8718C21.0018 15.8718 19.254 15.8718 17.4849 15.8718C17.4849 15.2942 17.4849 14.7244 17.4849 14.1375C19.2453 14.1375 20.9995 14.1375 22.7773 14.1375C22.7773 14.7064 22.7773 15.2762 22.7773 15.8718Z" fill="white"/>
<path d="M20.9963 12.3405C19.8266 12.3405 18.671 12.3405 17.4895 12.3405C17.4895 11.7746 17.4895 11.2056 17.4895 10.6147C18.6498 10.6147 19.8124 10.6147 20.9963 10.6147C20.9963 11.1876 20.9963 11.7558 20.9963 12.3405Z" fill="white"/>
<path d="M7.12769 24.7249C8.30605 24.7249 9.46158 24.7249 10.6407 24.7249C10.6407 25.3001 10.6407 25.8683 10.6407 26.456C9.4726 26.456 8.30999 26.456 7.12769 26.456C7.12769 25.8816 7.12769 25.3197 7.12769 24.7249Z" fill="white"/>
</g>
<defs>
<clipPath id="clip0_icon_phone">
<rect width="29" height="30" fill="white"/>
</clipPath>
</defs>
</svg>
