<svg width="32" height="32" viewBox="0 0 32 32" fill="none" xmlns="http://www.w3.org/2000/svg">
<g clip-path="url(#clip0_icon_user)">
<path d="M15.9417 32.0004C7.59033 31.9877 0.659713 25.4889 0.041874 17.0909C-0.562442 8.87909 5.36577 1.45945 13.5422 0.193365C23.633 -1.36978 32.5879 6.79208 31.9683 16.991C31.9464 17.349 31.8982 17.7053 31.8483 18.0608C31.7469 18.7827 31.266 19.2067 30.6169 19.1593C29.9475 19.111 29.5418 18.5711 29.5536 17.8119C29.5722 16.6373 29.6846 15.4465 29.5443 14.2887C28.7008 7.31849 22.705 2.15004 15.7296 2.31423C8.59611 2.4818 2.74735 8.08102 2.33827 15.1351C1.9199 22.3473 7.07898 28.7286 14.2378 29.5622C19.9023 30.2215 24.3895 28.0388 27.5885 23.28C27.6739 23.1522 27.75 23.0185 27.8319 22.8881C28.3272 22.1019 28.9214 21.8793 29.5426 22.2475C30.163 22.6139 30.3388 23.3333 29.8038 24.0408C28.7735 25.4034 27.7855 26.8447 26.5363 27.9872C23.5662 30.7055 19.9725 31.9818 15.9417 32.0004Z" fill="white"/>
<path d="M16.0322 26.3626C14.9816 26.3635 13.9319 26.3643 12.8813 26.3626C10.3153 26.3593 9.01705 25.0077 9.10073 22.4273C9.20976 19.0403 11.7868 16.1425 15.0171 15.7736C18.6684 15.3563 21.8404 17.4653 22.6788 20.9327C22.8631 21.6935 22.9231 22.5094 22.8859 23.2931C22.8014 25.0627 21.4152 26.3144 19.5668 26.3576C18.3886 26.3846 17.2104 26.3626 16.0322 26.3626ZM16.006 24.0539C17.1335 24.0539 18.2601 24.0649 19.3876 24.0505C20.2632 24.0387 20.5895 23.6976 20.6064 22.8335C20.6588 20.1219 18.6472 18.0197 16.0009 18.0222C13.3546 18.0239 11.3464 20.1278 11.4022 22.8394C11.4199 23.701 11.747 24.0395 12.6252 24.0505C13.7518 24.0649 14.8793 24.0539 16.006 24.0539Z" fill="white"/>
<path d="M15.992 14.0836C13.5299 14.0565 11.5285 12.0042 11.5547 9.53295C11.5801 7.06086 13.6136 5.06779 16.0934 5.08557C18.569 5.10334 20.5839 7.13111 20.5755 9.59642C20.5662 12.0939 18.5064 14.1107 15.992 14.0836ZM18.2613 9.58796C18.2664 8.39042 17.2725 7.40024 16.0638 7.39939C14.856 7.39854 13.8638 8.38281 13.8638 9.58288C13.8638 10.7813 14.8569 11.7715 16.0587 11.7731C17.264 11.774 18.2563 10.7897 18.2613 9.58796Z" fill="white"/>
</g>
<defs>
<clipPath id="clip0_icon_user">
<rect width="32" height="32" fill="white"/>
</clipPath>
</defs>
</svg>
