<svg width="30" height="30" viewBox="0 0 30 30" fill="none" xmlns="http://www.w3.org/2000/svg">
<g clip-path="url(#clip0_icon_logout)">
<path d="M18.9809 0C19.7452 0.246789 20.0077 0.785461 20.0011 1.56682C19.979 4.32905 19.9937 7.09128 19.9913 9.85433C19.9904 10.5808 19.6493 11.0538 19.0277 11.208C18.3118 11.3859 17.5787 10.8653 17.5139 10.1298C17.5016 9.99371 17.5016 9.85679 17.5016 9.72069C17.5008 7.4463 17.5008 5.17191 17.5008 2.89751C17.5008 2.78191 17.5008 2.6663 17.5008 2.52774C12.5025 2.52774 7.52891 2.52774 2.52904 2.52774C2.52904 10.8275 2.52904 19.1364 2.52904 27.4657C7.50267 27.4657 12.4763 27.4657 17.5008 27.4657C17.5008 27.3534 17.5008 27.2411 17.5008 27.1295C17.5008 24.7969 17.4991 22.4635 17.5016 20.1309C17.5024 19.4069 17.8476 18.933 18.4692 18.7805C19.186 18.6051 19.915 19.1282 19.979 19.8644C19.9888 19.9809 19.9904 20.0981 19.9904 20.2154C19.9913 22.9776 19.9708 25.7406 20.0011 28.5029C20.0126 29.5417 19.3221 30.0033 18.5094 30C12.8666 29.9803 7.22303 29.982 1.58024 29.9984C0.805292 30 0.261597 29.7483 0 28.994C0 19.6611 0 10.3282 0 0.995354C0.165651 0.496857 0.496952 0.165619 0.995544 0C6.99095 0 12.9864 0 18.9809 0Z" fill="white"/>
<path d="M25.6408 16.2404C25.5358 16.2404 25.4308 16.2404 25.3267 16.2404C21.9399 16.2404 18.553 16.2412 15.1654 16.2396C14.4437 16.2396 13.9911 15.9412 13.8098 15.3574C13.5737 14.599 14.1026 13.8184 14.8956 13.7594C15.0317 13.7496 15.1687 13.7496 15.3048 13.7496C18.6432 13.7488 21.9809 13.7496 25.3193 13.7496C25.4251 13.7496 25.5317 13.7496 25.7129 13.7496C25.6047 13.6323 25.5391 13.5577 25.4694 13.4872C24.6206 12.6378 23.7678 11.7933 22.9239 10.939C22.34 10.3478 22.3597 9.52629 22.9567 9.03599C23.4135 8.66048 24.0613 8.65556 24.5222 9.02779C24.6132 9.10076 24.6969 9.18357 24.7797 9.26638C26.3542 10.8389 27.9287 12.4115 29.5016 13.9849C30.1642 14.6474 30.1658 15.3394 29.5065 15.9994C27.9123 17.5941 26.3157 19.1855 24.7239 20.7818C24.3319 21.1754 23.885 21.3484 23.3446 21.1672C22.4483 20.8663 22.2121 19.7816 22.8993 19.0773C23.7382 18.2188 24.5935 17.376 25.4448 16.5298C25.5194 16.4552 25.6178 16.4044 25.7055 16.3429C25.6842 16.3085 25.6629 16.274 25.6408 16.2404Z" fill="white"/>
</g>
<defs>
<clipPath id="clip0_icon_logout">
<rect width="30" height="30" fill="white"/>
</clipPath>
</defs>
</svg>
