<svg width="42" height="37" viewBox="0 0 42 37" fill="none" xmlns="http://www.w3.org/2000/svg">
<g clip-path="url(#clip0)">
<path d="M20.9725 37C14.3088 37 7.64649 37 0.982717 37C0.106882 37 0 36.891 0 36.0163C0 24.3383 0 12.6617 0 0.983721C0 0.107502 0.106882 0 0.982717 0C14.3281 0 27.6719 0 41.0173 0C41.8916 0 42.0015 0.108975 42.0015 0.982249C42.0015 12.6603 42.0015 24.3368 42.0015 36.0148C42.0015 36.8895 41.8916 37 41.0188 37C34.3357 37 27.6541 37 20.9725 37ZM20.9696 35.8955C27.4107 35.8955 33.8518 35.8896 40.2929 35.9073C40.7887 35.9088 40.9 35.7792 40.8985 35.2991C40.8837 25.6784 40.8837 16.0562 40.8985 6.43542C40.8985 5.96565 40.805 5.82281 40.2988 5.82281C27.4344 5.839 14.5715 5.839 1.70714 5.82281C1.21132 5.82281 1.09999 5.94651 1.09999 6.42806C1.11483 16.0488 1.11632 25.671 1.09702 35.2917C1.09554 35.8337 1.28406 35.9029 1.75464 35.9029C8.16011 35.8926 14.5656 35.8955 20.9696 35.8955ZM20.9696 4.73305C24.6154 4.73305 28.2598 4.73305 31.9056 4.73305C34.7365 4.73305 37.5674 4.72569 40.3983 4.74189C40.7798 4.74336 40.9119 4.65353 40.897 4.25739C40.8659 3.43272 40.8495 2.60362 40.9015 1.78042C40.9356 1.22376 40.7738 1.08828 40.2082 1.08828C27.4047 1.10742 14.5997 1.103 1.7962 1.103C1.70417 1.103 1.60916 1.11331 1.51861 1.10153C1.20687 1.06177 1.0985 1.184 1.10593 1.50062C1.12374 2.38125 1.14452 3.26484 1.09999 4.14253C1.07475 4.63292 1.22172 4.74631 1.70862 4.74484C8.12894 4.72716 14.5493 4.73305 20.9696 4.73305Z" fill="#009473"/>
<path d="M4.21589 14.4981C4.21589 13.3229 4.21292 12.1478 4.21737 10.9726C4.21886 10.3291 4.38363 10.1641 5.04422 10.1627C7.39562 10.1583 9.74553 10.1583 12.0969 10.1627C12.7189 10.1641 12.8926 10.3394 12.8926 10.9491C12.8956 13.2994 12.8956 15.6497 12.8926 18C12.8911 18.6348 12.7159 18.8056 12.0598 18.8056C9.72771 18.8085 7.39562 18.8085 5.06352 18.8056C4.36582 18.8041 4.21886 18.6554 4.21737 17.9662C4.21292 16.8116 4.21589 15.6541 4.21589 14.4981ZM8.61585 11.2642C7.67173 11.2642 6.72909 11.273 5.78497 11.2598C5.47472 11.2554 5.31736 11.3054 5.32033 11.6736C5.33815 13.5453 5.33369 15.4185 5.3233 17.2902C5.32182 17.5862 5.39159 17.7129 5.72262 17.7114C7.60938 17.6982 9.49762 17.6982 11.3844 17.7114C11.708 17.7144 11.7896 17.6024 11.7867 17.2976C11.7748 15.4259 11.7718 13.5527 11.7882 11.681C11.7911 11.3246 11.656 11.2539 11.3354 11.2598C10.4284 11.276 9.52286 11.2642 8.61585 11.2642Z" fill="#009473"/>
<path d="M8.5045 31.3053C7.31989 31.3053 6.13677 31.295 4.95217 31.3097C4.44003 31.3156 4.20994 31.1168 4.21142 30.594C4.22181 28.2084 4.21291 25.8227 4.21736 23.437C4.21884 22.8612 4.38956 22.6963 4.99077 22.6948C7.35849 22.6904 9.72621 22.6904 12.0954 22.6948C12.713 22.6963 12.8896 22.8715 12.8911 23.4782C12.8941 25.8462 12.8866 28.2128 12.897 30.5808C12.8985 31.0918 12.6862 31.3156 12.1667 31.3097C10.9464 31.2965 9.72473 31.3053 8.5045 31.3053ZM8.61583 23.7978C7.6539 23.7978 6.69048 23.8096 5.72855 23.7919C5.40939 23.786 5.32032 23.8935 5.3218 24.2013C5.33368 26.073 5.33219 27.9462 5.32329 29.8194C5.3218 30.0919 5.38712 30.2111 5.69292 30.2097C7.59897 30.1979 9.50503 30.1994 11.4111 30.2097C11.7065 30.2111 11.7867 30.1095 11.7852 29.8268C11.7748 27.9551 11.7703 26.0819 11.7881 24.2087C11.7911 23.8464 11.6545 23.786 11.3354 23.7919C10.4299 23.8081 9.52284 23.7978 8.61583 23.7978Z" fill="#009473"/>
<path d="M23.2734 29.0639C21.4609 29.0639 19.6484 29.0595 17.8373 29.0669C17.4024 29.0684 17.0194 28.9726 17.0179 28.4749C17.0164 27.9624 17.435 27.8858 17.8477 27.8858C21.5084 27.8829 25.1706 27.8829 28.8313 27.8858C29.244 27.8858 29.6611 27.9683 29.6507 28.4852C29.6403 28.9859 29.2529 29.0698 28.8209 29.0684C26.9713 29.0595 25.1216 29.0639 23.2734 29.0639Z" fill="#009473"/>
<path d="M23.37 15.4111C25.2196 15.4111 27.0678 15.4185 28.9174 15.4053C29.3242 15.4023 29.6433 15.4951 29.6493 15.9442C29.6567 16.3919 29.3345 16.5141 28.9337 16.5141C25.1988 16.5112 21.4639 16.5112 17.729 16.5141C17.3208 16.5141 17.015 16.3595 17.0209 15.928C17.0268 15.5186 17.3208 15.4038 17.7127 15.4053C19.5979 15.417 21.4832 15.4111 23.37 15.4111Z" fill="#009473"/>
<path d="M30.1792 13.5497C28.6992 13.5497 27.2192 13.5468 25.7392 13.5527C25.3532 13.5542 25.0029 13.507 25.0073 13.024C25.0118 12.5763 25.3191 12.4467 25.7228 12.4467C28.6829 12.4482 31.6429 12.4482 34.6029 12.4482C34.6949 12.4482 34.7899 12.4438 34.879 12.4644C35.2041 12.5366 35.4297 12.7339 35.403 13.0726C35.3763 13.4143 35.1432 13.5571 34.7855 13.5556C33.2506 13.5438 31.7141 13.5497 30.1792 13.5497Z" fill="#009473"/>
<path d="M30.2416 24.9995C31.7023 24.9995 33.1645 25.0083 34.6252 24.9936C35.0319 24.9892 35.3704 25.104 35.3837 25.5237C35.3986 25.9803 35.0542 26.1069 34.6222 26.1054C31.6815 26.0966 28.7393 26.0981 25.7986 26.1025C25.3918 26.1025 25.0148 26.0392 25.0148 25.5473C25.0162 25.0554 25.3963 24.9951 25.8015 24.9965C27.2815 25.0039 28.7615 24.9995 30.2416 24.9995Z" fill="#009473"/>
<path d="M20.1412 13.5497C19.3099 13.5497 18.4771 13.5453 17.6458 13.5512C17.2821 13.5541 17.009 13.4363 17.012 13.0358C17.0149 12.6661 17.2539 12.4556 17.6147 12.4541C19.3337 12.4438 21.0542 12.4423 22.7732 12.457C23.125 12.46 23.3685 12.6455 23.3402 13.0505C23.315 13.4201 23.0938 13.5527 22.7479 13.5527C21.8795 13.5483 21.0096 13.5497 20.1412 13.5497Z" fill="#009473"/>
<path d="M20.2036 26.101C19.4094 26.101 18.6137 26.0951 17.8195 26.104C17.4172 26.1084 17.0313 26.0554 17.0194 25.565C17.0075 25.0775 17.3757 24.9951 17.7883 24.9965C19.396 25.0024 21.0037 25.0024 22.6114 24.9965C23.0003 24.9951 23.3313 25.051 23.3373 25.534C23.3447 26.0495 22.9973 26.1084 22.5861 26.104C21.7934 26.0951 20.9992 26.101 20.2036 26.101Z" fill="#009473"/>
<path d="M34.0462 29.064C33.3619 29.064 32.6776 29.0699 31.9947 29.061C31.6028 29.0551 31.3089 28.93 31.3178 28.4558C31.3252 28.0096 31.6132 27.8903 31.9754 27.8873C33.3619 27.8785 34.7484 27.877 36.1349 27.8873C36.5134 27.8903 36.8652 28.0184 36.8667 28.4646C36.8682 28.9432 36.4986 29.0566 36.0978 29.061C35.4149 29.0699 34.7306 29.064 34.0462 29.064Z" fill="#009473"/>
<path d="M34.0611 16.5127C33.3797 16.5127 32.6969 16.5171 32.0155 16.5112C31.6295 16.5083 31.3074 16.4081 31.3222 15.9325C31.3356 15.4907 31.628 15.4067 32.0036 15.4082C33.3856 15.4141 34.7692 15.4141 36.1512 15.4082C36.5535 15.4067 36.8801 15.5304 36.8608 15.9752C36.8444 16.3654 36.5476 16.5171 36.1631 16.5141C35.4624 16.5083 34.7617 16.5127 34.0611 16.5127Z" fill="#009473"/>
<path d="M6.83597 2.51968C7.81571 2.51968 8.79695 2.52999 9.77669 2.51526C10.1849 2.50937 10.4343 2.66989 10.4343 3.07339C10.4343 3.45333 10.173 3.61974 9.80935 3.61974C7.79345 3.62268 5.77754 3.62121 3.76312 3.61974C3.39943 3.61974 3.13519 3.45775 3.13222 3.07781C3.12925 2.67578 3.37716 2.50937 3.78539 2.51526C4.80225 2.52852 5.81911 2.51968 6.83597 2.51968Z" fill="#009473"/>
<path d="M36.549 2.51822C37.0835 2.51822 37.6179 2.52411 38.1523 2.51675C38.5531 2.51086 38.8811 2.63308 38.8663 3.07929C38.8529 3.47102 38.5575 3.62417 38.1745 3.6227C37.0879 3.61828 36.0013 3.62417 34.9146 3.61975C34.5302 3.61828 34.2036 3.52256 34.2184 3.04542C34.2318 2.56387 34.5643 2.51086 34.9488 2.51675C35.4802 2.52558 36.0146 2.51822 36.549 2.51822Z" fill="#009473"/>
<path d="M8.09479 16.3728C8.03986 16.3536 7.9597 16.3433 7.90478 16.3021C7.32138 15.8515 6.80776 15.3301 6.34461 14.7617C6.17835 14.557 6.2778 14.3361 6.45149 14.1741C6.64001 13.9989 6.87307 13.909 7.1002 14.0887C7.34513 14.2802 7.58562 14.4848 7.78602 14.7205C8.03244 15.0106 8.20761 14.9635 8.44512 14.7087C8.88452 14.2404 9.35659 13.8015 9.80935 13.345C10.081 13.0711 10.369 12.9754 10.6703 13.2758C10.9494 13.5527 10.8767 13.8339 10.6199 14.0902C9.9281 14.7764 9.23634 15.4612 8.54607 16.1475C8.42434 16.2667 8.28035 16.3418 8.09479 16.3728Z" fill="#009473"/>
<path d="M8.00574 26.1643C8.00574 25.7976 7.99832 25.4324 8.00722 25.0657C8.01465 24.7668 8.17794 24.5945 8.48225 24.5606C8.81329 24.5238 9.06713 24.677 9.08049 24.9877C9.11612 25.8271 9.12057 26.6709 9.08346 27.5103C9.07307 27.768 8.83407 27.9727 8.53569 27.958C8.21653 27.9433 8.02355 27.7415 8.01019 27.4264C7.99238 27.0067 8.00574 26.5855 8.00574 26.1643Z" fill="#009473"/>
<path d="M9.11461 29.0433C9.13243 29.4203 8.92163 29.6648 8.57872 29.678C8.23581 29.6913 8.0176 29.4719 7.99978 29.089C7.98048 28.6855 8.15862 28.444 8.55497 28.4381C8.93054 28.4322 9.09829 28.6855 9.11461 29.0433Z" fill="#009473"/>
</g>
<defs>
<clipPath id="clip0">
<rect width="42" height="37" fill="white"/>
</clipPath>
</defs>
</svg>
